<?xml version="1.0" encoding="UTF-8" standalone="no"?>
<!-- Created with Inkscape (http://www.inkscape.org/) -->

<svg
   width="133.49191mm"
   height="80.095154mm"
   viewBox="0 0 133.49191 80.095154"
   version="1.1"
   id="svg5"
   xml:space="preserve"
   xmlns:inkscape="http://www.inkscape.org/namespaces/inkscape"
   xmlns:sodipodi="http://sodipodi.sourceforge.net/DTD/sodipodi-0.dtd"
   xmlns="http://www.w3.org/2000/svg"
   xmlns:svg="http://www.w3.org/2000/svg"><sodipodi:namedview
     id="namedview7"
     pagecolor="#ffffff"
     bordercolor="#000000"
     borderopacity="0.25"
     inkscape:showpageshadow="2"
     inkscape:pageopacity="0.0"
     inkscape:pagecheckerboard="0"
     inkscape:deskcolor="#d1d1d1"
     inkscape:document-units="mm"
     showgrid="false"
     inkscape:zoom="0.71624579"
     inkscape:cx="260.38547"
     inkscape:cy="573.12728"
     inkscape:window-width="1920"
     inkscape:window-height="991"
     inkscape:window-x="-9"
     inkscape:window-y="-9"
     inkscape:window-maximized="1"
     inkscape:current-layer="layer1" /><defs
     id="defs2" /><g
     inkscape:label="Layer 1"
     inkscape:groupmode="layer"
     id="layer1"
     transform="translate(-34.606881,-71.869245)"><path
       d="m 67.979863,98.567639 q 6.674596,-26.69839 33.372977,-26.69839 c 26.69839,0 30.03569,20.02379 43.38487,23.36109 q 13.34918,3.3373 23.36108,-10.0119 -6.6746,26.698391 -33.37297,26.698391 c -26.69838,0 -30.03568,-20.023791 -43.384872,-23.361091 q -13.349191,-3.3373 -23.361085,10.0119 z M 34.606884,138.61522 q 6.674595,-26.69839 33.372979,-26.69839 c 26.698383,0 30.035673,20.02379 43.384877,23.36109 q 13.34919,3.3373 23.36108,-10.01189 -6.67459,26.69837 -33.37298,26.69837 c -26.698381,0 -30.035679,-20.02378 -43.384871,-23.36107 q -13.349191,-3.3373 -23.361085,10.01189 z"
       style="fill:#34343b;fill-opacity:1;stroke-width:4.76757"
       id="path430" /></g></svg>
