<?xml version="1.0" encoding="UTF-8" standalone="no"?>
<!-- Generator: Adobe Illustrator 27.5.0, SVG Export Plug-In . SVG Version: 6.00 Build 0)  -->

<svg
   version="1.1"
   x="0px"
   y="0px"
   viewBox="0 0 265.25201 348"
   xml:space="preserve"
   id="svg484"
   sodipodi:docname="33164c8b05357647344e7857544381be.svg"
   inkscape:version="1.2.1 (9c6d41e410, 2022-07-14)"
   inkscape:export-filename="contact.svg"
   inkscape:export-xdpi="96"
   inkscape:export-ydpi="96"
   width="265.25201"
   height="348"
   xmlns:inkscape="http://www.inkscape.org/namespaces/inkscape"
   xmlns:sodipodi="http://sodipodi.sourceforge.net/DTD/sodipodi-0.dtd"
   xmlns="http://www.w3.org/2000/svg"
   xmlns:svg="http://www.w3.org/2000/svg"><defs
   id="defs488" /><sodipodi:namedview
   id="namedview486"
   pagecolor="#ffffff"
   bordercolor="#000000"
   borderopacity="0.25"
   inkscape:showpageshadow="2"
   inkscape:pageopacity="0.0"
   inkscape:pagecheckerboard="0"
   inkscape:deskcolor="#d1d1d1"
   showgrid="false"
   inkscape:zoom="0.804"
   inkscape:cx="-137.43781"
   inkscape:cy="291.66667"
   inkscape:window-width="1920"
   inkscape:window-height="991"
   inkscape:window-x="-9"
   inkscape:window-y="-9"
   inkscape:window-maximized="1"
   inkscape:current-layer="svg484"
   inkscape:pageshadow="2" />

<g
   id="OBJECTS"
   inkscape:export-filename="contact1.svg"
   inkscape:export-xdpi="110.34483"
   inkscape:export-ydpi="110.34483"
   transform="translate(-117.375,-76)">
	<g
   id="g443">
		<g
   id="g282">
			<path
   style="fill:#e5e5e5"
   d="m 313.15,141.998 h -8.333 c -13.267,0 -24.021,-10.755 -24.021,-24.021 v -13.789 h 56.376 v 13.789 c -0.001,13.267 -10.755,24.021 -24.022,24.021 z"
   id="path248" />
			<g
   id="g280">
				<g
   id="g252">
					
						<circle
   transform="matrix(0.1631,-0.9866,0.9866,0.1631,155.7978,392.0417)"
   style="fill:#ffffff"
   cx="308.983"
   cy="104.188"
   id="ellipse250"
   r="26.507999" />
				</g>
				<g
   id="g256">
					<path
   style="fill:#e0e0e0"
   d="m 308.983,82.349 c 13.853,0 25.216,10.628 26.399,24.173 0.067,-0.77 0.108,-1.547 0.108,-2.334 0,-14.64 -11.868,-26.508 -26.508,-26.508 -14.64,0 -26.508,11.868 -26.508,26.508 0,0.787 0.041,1.565 0.108,2.334 1.185,-13.546 12.549,-24.173 26.401,-24.173 z"
   id="path254" />
				</g>
				<g
   id="g260">
					<path
   style="fill:#46adb5"
   d="m 308.983,132.375 c -15.543,0 -28.188,-12.645 -28.188,-28.188 C 280.796,88.645 293.44,76 308.983,76 c 15.543,0 28.188,12.645 28.188,28.188 0,15.542 -12.645,28.187 -28.188,28.187 z m 0,-53.015 c -13.69,0 -24.827,11.137 -24.827,24.827 0,13.69 11.138,24.827 24.827,24.827 13.69,0 24.828,-11.137 24.828,-24.827 0,-13.689 -11.137,-24.827 -24.828,-24.827 z"
   id="path258" />
				</g>
				<g
   id="g270">
					<g
   id="g264">
						<path
   style="fill:#e83c1a"
   d="m 320.166,95.175 -9.535,9.536 c -0.397,0.397 -1.042,0.397 -1.439,0 v 0 c -0.397,-0.398 -0.397,-1.042 0,-1.439 l 9.535,-9.535 c 0.397,-0.398 1.042,-0.398 1.439,0 v 0 c 0.397,0.396 0.397,1.04 0,1.438 z"
   id="path262" />
					</g>
					<g
   id="g268">
						<path
   style="fill:#e83c1a"
   d="m 295.472,89.552 13.718,13.719 c 0.397,0.397 0.397,1.042 0,1.439 v 0 c -0.397,0.397 -1.042,0.397 -1.439,0 L 294.032,90.991 c -0.397,-0.397 -0.397,-1.042 0,-1.439 v 0 c 0.398,-0.397 1.043,-0.397 1.44,0 z"
   id="path266" />
					</g>
				</g>
				<g
   id="g274">
					<circle
   style="fill:#e83c1a"
   cx="308.983"
   cy="104.188"
   r="2.684"
   id="circle272" />
				</g>
				<g
   id="g278">
					<circle
   style="fill:#ffffff"
   cx="308.983"
   cy="104.188"
   r="1.576"
   id="circle276" />
				</g>
			</g>
		</g>
		<g
   id="g300">
			<rect
   x="134.726"
   y="138.536"
   style="fill:#e5e5e5"
   width="101.471"
   height="30.459"
   id="rect284" />
			
				<rect
   id="XMLID_519_"
   x="134.726"
   y="133.702"
   transform="rotate(180,185.4811,138.53605)"
   style="fill:#46adb5"
   width="101.51"
   height="9.6669998" />
			
				<rect
   id="XMLID_516_"
   x="134.726"
   y="141.258"
   transform="rotate(180,185.4811,142.31355)"
   style="fill:#349799"
   width="101.51"
   height="2.112" />
			<g
   id="XMLID_400_">
				<path
   id="XMLID_474_"
   style="fill:#64b5e5"
   d="m 222.833,133.702 h -33.914 c -1.97,0 -3.567,-1.597 -3.567,-3.567 v -35.34 c 0,-1.97 1.597,-3.567 3.567,-3.567 h 33.914 z" />
				<rect
   id="XMLID_401_"
   x="209.63699"
   y="91.227997"
   style="fill:#3a9bc5"
   width="13.195"
   height="42.473999" />
				<rect
   id="XMLID_404_"
   x="212.30099"
   y="91.227997"
   style="fill:#ffffff"
   width="8.6400003"
   height="42.473999" />
			</g>
			<g
   id="XMLID_252_">
				<path
   id="XMLID_387_"
   style="fill:#9068ab"
   d="m 201.498,133.702 h -33.914 c -1.97,0 -3.567,-1.597 -3.567,-3.567 v -35.34 c 0,-1.97 1.597,-3.567 3.567,-3.567 h 33.914 z" />
				<rect
   id="XMLID_368_"
   x="188.30299"
   y="91.227997"
   style="fill:#784e9e"
   width="13.195"
   height="42.473999" />
				<rect
   id="XMLID_253_"
   x="190.967"
   y="91.227997"
   style="fill:#ffffff"
   width="8.6400003"
   height="42.473999" />
			</g>
			<g
   id="XMLID_394_">
				<path
   id="XMLID_473_"
   style="fill:#e83c1a"
   d="m 180.035,133.702 h -27.317 c -1.97,0 -3.567,-1.597 -3.567,-3.567 v -35.34 c 0,-1.97 1.597,-3.567 3.567,-3.567 h 27.317 z" />
				<rect
   id="XMLID_399_"
   x="169.162"
   y="91.227997"
   style="fill:#ab1b0e"
   width="10.872"
   height="42.473999" />
				<rect
   id="XMLID_397_"
   x="171.35699"
   y="91.227997"
   style="fill:#ffffff"
   width="7.119"
   height="42.473999" />
			</g>
		</g>
		<g
   id="g441">
			<path
   id="XMLID_520_"
   style="fill:#ffffff"
   d="m 318.161,261.177 h -145.99 c -3.868,0 -7.004,-3.136 -7.004,-7.004 v -86.059 c 0,-3.868 3.136,-7.004 7.004,-7.004 H 318.16 c 3.868,0 7.004,3.136 7.004,7.004 v 86.059 c 0,3.868 -3.135,7.004 -7.003,7.004 z" />
			<polygon
   style="fill:#c5e9ff"
   points="165.168,250.499 254.557,161.111 236.321,161.111 165.168,232.263 "
   id="polygon303" />
			<path
   style="fill:#c5e9ff"
   d="m 293.434,261.177 h 23.886 c 4.332,0 7.845,-3.512 7.845,-7.844 v -23.886 c -10.578,10.576 -21.154,21.153 -31.731,31.73 z"
   id="path305" />
			<path
   style="fill:#c5e9ff"
   d="m 325.164,175.626 v -6.671 c 0,-4.332 -3.512,-7.844 -7.845,-7.844 h -8.943 c -33.355,33.355 -66.711,66.711 -100.066,100.066 h 31.303 z"
   id="path307" />
			<g
   id="XMLID_327_">
				<path
   style="fill:#868689"
   d="M 317.32,264.537 H 173.012 c -6.178,0 -11.205,-5.026 -11.205,-11.204 v -84.378 c 0,-6.178 5.027,-11.204 11.205,-11.204 H 317.32 c 6.178,0 11.204,5.026 11.204,11.204 v 84.378 c 0,6.178 -5.026,11.204 -11.204,11.204 z M 173.012,164.471 c -2.473,0 -4.484,2.012 -4.484,4.484 v 69.414 c 0,2.472 2.011,4.484 4.484,4.484 H 317.32 c 2.472,0 4.484,-2.012 4.484,-4.484 v -69.414 c 0,-2.473 -2.012,-4.484 -4.484,-4.484 H 173.012 Z"
   id="path309" />
			</g>
			<g
   id="g316">
				<path
   style="fill:#6d6d6d"
   d="M 317.32,162.826 H 173.012 c -2.473,0 -4.484,2.012 -4.484,4.484 v 1.645 c 0,-2.473 2.011,-4.484 4.484,-4.484 H 317.32 c 2.472,0 4.484,2.012 4.484,4.484 v -1.645 c 0,-2.473 -2.012,-4.484 -4.484,-4.484 z"
   id="path312" />
				<path
   style="fill:#6d6d6d"
   d="M 317.32,262.892 H 173.012 c -6.178,0 -11.205,-5.026 -11.205,-11.204 v 1.645 c 0,6.178 5.027,11.204 11.205,11.204 H 317.32 c 6.178,0 11.204,-5.026 11.204,-11.204 v -1.645 c 0,6.178 -5.026,11.204 -11.204,11.204 z"
   id="path314" />
			</g>
			<path
   style="fill:#e5e5e5"
   d="m 371.975,418.824 c 0,2.859 -56.994,5.176 -127.3,5.176 -70.306,0 -127.3,-2.317 -127.3,-5.176 0,-2.858 56.994,-5.176 127.3,-5.176 70.306,0 127.3,2.318 127.3,5.176 z"
   id="path318" />
			
				<rect
   id="XMLID_218_"
   x="142.87801"
   y="299.797"
   transform="rotate(180,147.2201,359.36875)"
   style="fill:#46adb5"
   width="8.6829996"
   height="119.143" />
			
				<rect
   id="XMLID_46_"
   x="334.93399"
   y="299.797"
   transform="rotate(180,339.27545,359.36875)"
   style="fill:#46adb5"
   width="8.6829996"
   height="119.143" />
			
				<rect
   id="XMLID_251_"
   x="142.87801"
   y="299.797"
   transform="rotate(180,147.21995,309.893)"
   style="fill:#349799"
   width="8.6829996"
   height="20.191" />
			
				<rect
   id="XMLID_195_"
   x="334.93399"
   y="299.797"
   transform="rotate(180,339.27535,309.893)"
   style="fill:#349799"
   width="8.6829996"
   height="20.191" />
			
				<rect
   id="XMLID_206_"
   x="124.983"
   y="295.61401"
   transform="rotate(180,244.6746,300.44795)"
   style="fill:#46adb5"
   width="239.383"
   height="9.6669998" />
			
				<rect
   id="XMLID_514_"
   x="124.983"
   y="303.16901"
   transform="rotate(180,244.6746,304.22545)"
   style="fill:#349799"
   width="239.383"
   height="2.112" />
			
				<rect
   id="XMLID_42_"
   x="171.022"
   y="287.98199"
   transform="rotate(180,204.0157,291.79825)"
   style="fill:#c5c4d7"
   width="65.986"
   height="7.632" />
			
				<rect
   id="XMLID_270_"
   x="177.722"
   y="287.98199"
   transform="rotate(180,210.7153,291.79825)"
   style="fill:#a5a5ad"
   width="65.986"
   height="7.632" />
			<path
   id="XMLID_324_"
   style="fill:#a5a5ad"
   d="m 311.919,287.982 h 1.37 c 4.215,0 7.632,3.417 7.632,7.632 v 0 h -16.635 v 0 c 10e-4,-4.215 3.418,-7.632 7.633,-7.632 z" />
			<path
   style="fill:#666666"
   d="m 243.701,312.492 h 35.408 c 0.573,0 1.175,0.033 1.797,0.098 12.044,1.25 20.044,13.135 17.23,24.912 l -14.488,67.445 h -20.822 l 9.995,-63.969 h -29.12 z"
   id="path329" />
			<path
   style="fill:#7c230e"
   d="m 262.825,404.947 h 17.38 c 0,0 18.495,1.749 18.495,13.993 h -35.875 z"
   id="path331" />
			<path
   style="fill:#666666"
   d="m 245.716,312.492 h -35.407 c -0.573,0 -1.175,0.033 -1.797,0.098 -12.044,1.25 -20.044,13.135 -17.23,24.912 l 14.488,67.445 h 20.822 l -9.995,-63.969 h 29.12 v -28.486 z"
   id="path333" />
			<path
   style="fill:#4d5056"
   d="m 275.053,404.947 c 0.07,-0.23 0.139,-0.457 0.209,-0.687 2.411,-7.941 4.685,-26.936 6.939,-34.924 2.411,-8.545 4.66,-17.149 6.322,-25.875 0.341,-1.79 0.631,-3.588 0.945,-5.382 0.118,-0.806 0.198,-1.34 0.241,-1.612 0.111,-0.934 0.22,-1.869 0.311,-2.806 0.022,-0.226 0.036,-0.452 0.056,-0.678 h -46.375 v 7.996 h 29.12 l -9.995,63.969 h 12.227 z"
   id="path335" />
			<path
   style="fill:#4d5056"
   d="m 245.716,332.982 h -44.545 c 0.21,0.91 0.429,1.818 0.66,2.725 1.959,7.703 4.478,15.25 6.992,22.785 2.45,7.344 5.016,14.689 6.903,22.203 1.108,4.411 1.953,19.862 3.06,24.252 h 7.805 l -9.995,-63.969 h 29.12 z"
   id="path337" />
			<g
   id="XMLID_534_">
				<g
   id="XMLID_535_">
					<g
   id="XMLID_537_">
						<g
   id="XMLID_570_">
							<path
   id="XMLID_573_"
   style="fill:#edac7c"
   d="m 224.248,194.423 c 0,0 -4.434,-6.996 -9.51,-3.175 -5.078,3.821 0.305,17.64 9.535,15.41 z" />
							<path
   id="XMLID_572_"
   style="fill:#f7a588"
   d="m 224.257,199.06 0.014,6.299 c -7.858,0.636 -11.22,-10.546 -7.523,-11.692 2.991,-0.927 6.189,3.192 7.509,5.393 z" />
							<path
   id="XMLID_571_"
   style="fill:#cf9166"
   d="m 215.288,195.772 c 0,0 0.02,-0.046 0.051,-0.134 0.033,-0.088 0.088,-0.21 0.154,-0.363 0.145,-0.297 0.387,-0.726 0.797,-1.01 0.102,-0.072 0.219,-0.125 0.337,-0.169 0.062,-0.02 0.122,-0.041 0.19,-0.056 l 0.046,-0.012 0.002,-0.001 c -0.035,0.01 -0.007,0.003 -0.014,0.005 l 0.006,-0.002 0.018,-0.002 0.029,-0.005 0.125,-0.02 c 0.091,-0.019 0.158,-0.021 0.225,-0.025 0.065,-0.005 0.137,-0.007 0.219,-0.004 0.075,0.001 0.152,0.003 0.227,0.014 0.08,0.007 0.158,0.011 0.237,0.03 0.629,0.106 1.276,0.419 1.883,0.824 0.309,0.198 0.599,0.429 0.885,0.661 0.281,0.236 0.557,0.478 0.817,0.721 0.52,0.489 0.988,0.975 1.393,1.395 0.805,0.865 1.341,1.441 1.341,1.441 0,0 -0.058,-0.191 -0.192,-0.513 -0.138,-0.321 -0.349,-0.773 -0.653,-1.287 -0.155,-0.256 -0.324,-0.535 -0.526,-0.814 -0.2,-0.281 -0.424,-0.572 -0.672,-0.859 -0.5,-0.573 -1.093,-1.148 -1.795,-1.616 -0.354,-0.231 -0.729,-0.439 -1.13,-0.594 -0.4,-0.156 -0.827,-0.259 -1.25,-0.284 -0.105,-0.009 -0.21,-0.009 -0.317,-0.006 -0.103,-0.003 -0.206,0.01 -0.308,0.023 -0.099,0.009 -0.203,0.028 -0.309,0.053 -0.106,0.023 -0.207,0.046 -0.278,0.076 l -0.123,0.043 -0.075,0.026 -0.07,0.03 c -0.092,0.036 -0.177,0.083 -0.259,0.133 -0.16,0.104 -0.303,0.22 -0.418,0.347 -0.239,0.249 -0.372,0.527 -0.457,0.769 -0.088,0.241 -0.117,0.46 -0.135,0.635 -0.018,0.175 -0.012,0.316 -0.009,0.409 0.005,0.093 0.008,0.141 0.008,0.141 z" />
						</g>
						<g
   id="XMLID_566_">
							<path
   id="XMLID_569_"
   style="fill:#edac7c"
   d="m 271.255,198.481 c 0,0 5.565,-6.131 9.912,-1.496 4.35,4.633 -3.324,17.325 -12.036,13.547 z" />
							<path
   id="XMLID_568_"
   style="fill:#f7a588"
   d="m 270.451,203.049 -1.092,6.202 c 7.63,1.975 12.859,-8.465 9.413,-10.228 -2.786,-1.425 -6.645,2.084 -8.321,4.026 z" />
							<path
   id="XMLID_567_"
   style="fill:#cf9166"
   d="m 279.849,201.348 c 0,0 -0.009,-0.048 -0.028,-0.139 -0.017,-0.093 -0.048,-0.222 -0.089,-0.385 -0.089,-0.319 -0.255,-0.783 -0.613,-1.133 -0.086,-0.087 -0.189,-0.159 -0.303,-0.224 -0.058,-0.028 -0.112,-0.063 -0.173,-0.085 l -0.048,-0.02 -0.002,-0.001 c 0.035,0.016 0.007,0.002 0.013,0.005 l -0.006,-0.001 -0.015,-0.006 -0.029,-0.011 -0.121,-0.042 c -0.084,-0.034 -0.152,-0.047 -0.217,-0.062 -0.063,-0.019 -0.134,-0.032 -0.214,-0.042 -0.075,-0.012 -0.15,-0.021 -0.227,-0.026 -0.077,-0.007 -0.155,-0.013 -0.236,-0.01 -0.638,-0.006 -1.331,0.192 -1.998,0.487 -0.336,0.144 -0.663,0.32 -0.985,0.502 -0.317,0.184 -0.63,0.374 -0.929,0.571 -0.596,0.392 -1.14,0.79 -1.612,1.133 -0.941,0.714 -1.567,1.19 -1.567,1.19 0,0 0.091,-0.179 0.28,-0.472 0.186,-0.291 0.474,-0.703 0.864,-1.157 0.195,-0.225 0.41,-0.47 0.657,-0.711 0.246,-0.243 0.513,-0.49 0.808,-0.732 0.589,-0.478 1.272,-0.943 2.044,-1.285 0.386,-0.166 0.796,-0.306 1.217,-0.39 0.421,-0.085 0.857,-0.114 1.278,-0.066 0.107,0.009 0.21,0.029 0.313,0.05 0.104,0.015 0.202,0.043 0.302,0.075 0.095,0.025 0.193,0.061 0.294,0.105 0.1,0.04 0.195,0.08 0.262,0.124 l 0.111,0.06 0.07,0.04 0.064,0.042 c 0.084,0.052 0.162,0.114 0.235,0.177 0.138,0.129 0.258,0.267 0.353,0.412 0.191,0.287 0.274,0.584 0.316,0.835 0.045,0.254 0.036,0.474 0.024,0.651 -0.013,0.177 -0.043,0.313 -0.061,0.404 -0.02,0.088 -0.032,0.137 -0.032,0.137 z" />
						</g>
						<path
   id="XMLID_565_"
   style="fill:#edac7c"
   d="m 240.392,216.184 12.726,1.097 c 0,0 -1.231,19.969 -1.183,19.973 0,0 -1.278,3.893 -6.931,3.495 -5.655,-0.401 -6.689,-4.671 -6.689,-4.671 0.056,-0.106 2.077,-19.894 2.077,-19.894 z" />
						<path
   id="XMLID_564_"
   style="fill:#cf9166"
   d="m 239.76,223.512 12.726,1.097 c 0,0 -0.177,7.757 -0.13,7.76 0,0 -1.278,3.893 -6.931,3.494 -5.655,-0.401 -6.689,-4.671 -6.689,-4.671 0.056,-0.105 1.024,-7.68 1.024,-7.68 z" />
						<path
   id="XMLID_563_"
   style="fill:#cf9166"
   d="m 240.076,219.848 12.726,1.097 c 0,0 -0.059,2.559 -0.099,4.738 -0.004,0.316 -3.709,0.553 -4.111,0.581 -3.158,0.225 -6.191,-0.44 -9.156,-1.473 0.291,-2.207 0.64,-4.943 0.64,-4.943 z" />
						<path
   id="XMLID_561_"
   style="fill:#edac7c"
   d="m 221.572,188.506 c 1.07,-8.815 5.593,-16.834 14.625,-19.511 4.593,-1.363 9.512,-1.406 14.259,-0.919 4.689,0.481 9.665,1.218 13.932,3.301 7.644,3.733 6.142,7.726 6.249,15.869 0.012,0.799 4.985,5.127 4.943,5.923 -0.093,1.827 -0.108,3.633 -0.333,5.455 -0.507,4.097 -1.517,8.162 -3.195,11.949 -2.035,4.595 -5.128,8.753 -9.354,11.62 -2.399,1.63 -5.102,2.802 -7.922,3.532 -4.656,1.201 -9.005,1.356 -13.655,0.078 -3.151,-0.865 -6.184,-2.182 -8.856,-4.046 -4.433,-3.091 -7.567,-7.569 -9.332,-12.587 -1.482,-4.223 -2.055,-8.727 -2.025,-13.177 0.016,-2.437 0.182,-4.9 0.627,-7.296 0.013,-0.064 0.029,-0.127 0.037,-0.191 z" />
						<g
   id="XMLID_538_">
							<path
   id="XMLID_539_"
   style="fill:#cf9166"
   d="m 221.089,188.749 c 0,0 -0.144,-3.454 0.269,-7.873 -0.358,4.502 -0.269,7.873 -0.269,7.873 z" />
						</g>
						<path
   id="XMLID_574_"
   style="fill:#3e150d"
   d="m 232.702,168.023 c 8.009,-12.022 44.271,-13.029 46.983,27.474 1.978,29.517 -31.371,33.189 -47.419,26.259 -27.304,-11.789 -7.576,-41.713 0.436,-53.733 z" />
					</g>
					<path
   id="XMLID_536_"
   style="fill:#361710"
   d="m 220.698,200.926 c 0,0 -3.798,-1.158 -5.96,-9.678 -1.477,-5.822 0.213,-18.082 7.387,-23.979 4.21,-3.461 5.38,-1.848 5.38,-1.848 0,0 2.776,-13.56 11.112,-11.134 34.687,10.095 32.655,-0.633 43.637,8.894 11.154,9.675 -6.673,29.989 -33.98,21.05 -11.029,-3.61 -18.035,-5.409 -18.035,-5.409 0,0 0.091,3.574 -2.119,8.643 -2.209,5.069 -7.505,10.574 -7.505,10.574" />
				</g>
			</g>
			<path
   style="fill:#a7a6bb"
   d="M 294.767,278.885 279.53,244.189 c -2.183,-4.971 -8.042,-8.296 -14.617,-8.296 h -18.19 -2.014 -18.189 c -6.575,0 -12.435,3.325 -14.617,8.296 l -15.237,34.696 c -3.544,8.069 3.927,16.524 14.602,16.524 h 33.442 2.014 33.442 c 10.674,0 18.145,-8.454 14.601,-16.524 z"
   id="path358" />
			<path
   style="fill:#ab1b0e"
   d="m 269.981,331.733 h -47.723 c -7.778,0 -14.084,-6.306 -14.084,-14.084 v -61.538 c 0,-7.778 6.306,-14.084 14.084,-14.084 h 47.723 c 7.778,0 14.084,6.305 14.084,14.084 v 61.538 c -10e-4,7.778 -6.306,14.084 -14.084,14.084 z"
   id="path360" />
			<path
   style="fill:#e83c1a"
   d="m 266.281,326.236 h -40.324 c -7.778,0 -14.084,-6.306 -14.084,-14.084 V 257.61 c 0,-7.778 6.305,-14.084 14.084,-14.084 h 40.325 c 7.778,0 14.084,6.305 14.084,14.084 v 54.542 c -10e-4,7.778 -6.306,14.084 -14.085,14.084 z"
   id="path362" />
			<rect
   x="231.756"
   y="230.86501"
   style="fill:#a7a6bb"
   width="26.82"
   height="6.8299999"
   id="rect364" />
			<ellipse
   style="fill:#e83c1a"
   cx="244.62801"
   cy="343.60199"
   rx="44.432999"
   ry="10.439"
   id="ellipse366" />
			<path
   style="fill:#ab1b0e"
   d="m 210.715,336.86 c 8.15,0.905 20.315,1.48 33.913,1.48 13.599,0 25.763,-0.575 33.913,-1.48 -8.151,-2.261 -20.315,-3.698 -33.913,-3.698 -13.598,0 -25.762,1.437 -33.913,3.698 z"
   id="path368" />
			<path
   style="fill:#ab1b0e"
   d="m 201.05,345.642 c 4.04,4.788 22.012,8.399 43.578,8.399 21.567,0 39.539,-3.611 43.578,-8.399 z"
   id="path370" />
			<path
   style="fill:#202739"
   d="m 251.153,405.983 h -13.05 V 299.194 c 0,-3.604 2.921,-6.525 6.525,-6.525 v 0 c 3.604,0 6.525,2.921 6.525,6.525 z"
   id="path372" />
			<path
   style="fill:#7c230e"
   d="m 226.592,404.947 h -17.38 c 0,0 -18.495,1.749 -18.495,13.993 h 35.875 z"
   id="path374" />
			<g
   id="g384">
				<g
   id="g378">
					<path
   style="fill:#202739"
   d="m 244.142,363.482 c -0.181,0.016 -18.301,1.836 -38.137,-5.135 -14.324,-5.035 -12.511,-40.206 -10.176,-56.897 5.623,-0.27 9.931,-1.765 9.931,-3.576 0,-2.001 -5.258,-3.623 -11.744,-3.623 -6.486,0 -11.744,1.622 -11.744,3.623 0,1.658 3.613,3.052 8.54,3.483 -1.747,13.171 -5.682,54.949 13.536,61.704 13.65,4.798 26.299,5.667 33.674,5.667 3.944,0 6.381,-0.249 6.653,-0.278 z"
   id="path376" />
				</g>
				<g
   id="g382">
					<path
   style="fill:#202739"
   d="m 247.114,363.482 c 0.181,0.016 18.301,1.836 38.137,-5.135 14.324,-5.035 12.511,-40.206 10.175,-56.897 -5.623,-0.27 -9.931,-1.765 -9.931,-3.576 0,-2.001 5.258,-3.623 11.744,-3.623 6.486,0 11.744,1.622 11.744,3.623 0,1.658 -3.613,3.052 -8.54,3.483 1.747,13.171 5.682,54.949 -13.536,61.704 -13.65,4.798 -26.299,5.667 -33.674,5.667 -3.944,0 -6.381,-0.249 -6.653,-0.278 z"
   id="path380" />
				</g>
			</g>
			<circle
   style="fill:#202739"
   cx="244.675"
   cy="413.64801"
   r="7.6659999"
   id="circle386" />
			<path
   style="fill:#202739"
   d="m 252.34,295.409 c 0,4.233 -3.432,7.665 -7.666,7.665 -4.234,0 -7.666,-3.432 -7.666,-7.665 0,-4.234 3.432,-7.666 7.666,-7.666 4.234,0.001 7.666,3.433 7.666,7.666 z"
   id="path388" />
			<g
   id="g394">
				<circle
   style="fill:#202739"
   cx="219.351"
   cy="413.64801"
   r="7.6659999"
   id="circle390" />
				<circle
   style="fill:#202739"
   cx="269.90601"
   cy="413.64801"
   r="7.6659999"
   id="circle392" />
			</g>
			<rect
   x="221.436"
   y="404.94699"
   style="fill:#202739"
   width="46.477001"
   height="5.3720002"
   id="rect396" />
			<g
   id="g439">
				<path
   id="XMLID_556_"
   style="fill:#9594a0"
   d="m 346.706,295.658 h -17.164 v -4.453 c 0,-2.462 1.996,-4.458 4.458,-4.458 v 0 c 2.462,0 8.505,1.996 8.505,4.458 z" />
				<path
   id="XMLID_553_"
   style="fill:#c5c4d7"
   d="m 382.626,377.212 h -42.755 v -80.269 c 0,-4.363 -2.517,-8.334 -6.461,-10.196 v 0 l 36.908,-0.21 c 6.787,-0.039 12.309,5.452 12.309,12.239 v 78.436 z" />
				<g
   id="XMLID_518_">
					<g
   id="XMLID_551_">
						<path
   id="XMLID_552_"
   style="fill:#888888"
   d="m 374.254,292.684 h -29.223 c -0.143,0 -0.258,-0.116 -0.258,-0.258 0,-0.143 0.115,-0.258 0.258,-0.258 h 29.223 c 0.143,0 0.258,0.115 0.258,0.258 0,0.143 -0.116,0.258 -0.258,0.258 z" />
					</g>
					<g
   id="XMLID_549_">
						<path
   id="XMLID_550_"
   style="fill:#888888"
   d="m 377.52,295.951 h -29.223 c -0.143,0 -0.258,-0.115 -0.258,-0.258 0,-0.143 0.115,-0.258 0.258,-0.258 h 29.223 c 0.143,0 0.258,0.115 0.258,0.258 10e-4,0.143 -0.115,0.258 -0.258,0.258 z" />
					</g>
					<g
   id="XMLID_547_">
						<path
   id="XMLID_548_"
   style="fill:#888888"
   d="m 377.408,299.639 h -29.223 c -0.143,0 -0.258,-0.115 -0.258,-0.258 0,-0.143 0.115,-0.258 0.258,-0.258 h 29.223 c 0.143,0 0.258,0.115 0.258,0.258 0,0.142 -0.116,0.258 -0.258,0.258 z" />
					</g>
					<g
   id="XMLID_545_">
						<path
   id="XMLID_546_"
   style="fill:#888888"
   d="m 377.408,303.699 h -29.223 c -0.143,0 -0.258,-0.115 -0.258,-0.258 0,-0.143 0.115,-0.258 0.258,-0.258 h 29.223 c 0.143,0 0.258,0.115 0.258,0.258 0,0.143 -0.116,0.258 -0.258,0.258 z" />
					</g>
					<g
   id="XMLID_543_">
						<path
   id="XMLID_544_"
   style="fill:#888888"
   d="m 377.408,308.424 h -29.223 c -0.143,0 -0.258,-0.115 -0.258,-0.258 0,-0.143 0.115,-0.258 0.258,-0.258 h 29.223 c 0.143,0 0.258,0.115 0.258,0.258 0,0.143 -0.116,0.258 -0.258,0.258 z" />
					</g>
					<g
   id="XMLID_541_">
						<path
   id="XMLID_542_"
   style="fill:#888888"
   d="m 377.408,313.148 h -29.223 c -0.143,0 -0.258,-0.115 -0.258,-0.258 0,-0.142 0.115,-0.258 0.258,-0.258 h 29.223 c 0.143,0 0.258,0.115 0.258,0.258 0,0.143 -0.116,0.258 -0.258,0.258 z" />
					</g>
					<g
   id="XMLID_533_">
						<path
   id="XMLID_540_"
   style="fill:#888888"
   d="m 377.408,317.873 h -29.223 c -0.143,0 -0.258,-0.116 -0.258,-0.258 0,-0.143 0.115,-0.258 0.258,-0.258 h 29.223 c 0.143,0 0.258,0.115 0.258,0.258 0,0.142 -0.116,0.258 -0.258,0.258 z" />
					</g>
					<g
   id="XMLID_531_">
						<path
   id="XMLID_532_"
   style="fill:#888888"
   d="m 377.408,322.597 h -29.223 c -0.143,0 -0.258,-0.115 -0.258,-0.258 0,-0.143 0.115,-0.258 0.258,-0.258 h 29.223 c 0.143,0 0.258,0.115 0.258,0.258 0,0.143 -0.116,0.258 -0.258,0.258 z" />
					</g>
					<g
   id="XMLID_529_">
						<path
   id="XMLID_530_"
   style="fill:#888888"
   d="m 377.408,327.321 h -29.223 c -0.143,0 -0.258,-0.115 -0.258,-0.258 0,-0.142 0.115,-0.258 0.258,-0.258 h 29.223 c 0.143,0 0.258,0.116 0.258,0.258 0,0.143 -0.116,0.258 -0.258,0.258 z" />
					</g>
					<g
   id="XMLID_527_">
						<path
   id="XMLID_528_"
   style="fill:#888888"
   d="m 377.408,332.046 h -29.223 c -0.143,0 -0.258,-0.116 -0.258,-0.258 0,-0.142 0.115,-0.258 0.258,-0.258 h 29.223 c 0.143,0 0.258,0.115 0.258,0.258 0,0.143 -0.116,0.258 -0.258,0.258 z" />
					</g>
					<g
   id="XMLID_525_">
						<path
   id="XMLID_526_"
   style="fill:#888888"
   d="m 377.408,336.771 h -29.223 c -0.143,0 -0.258,-0.115 -0.258,-0.258 0,-0.143 0.115,-0.258 0.258,-0.258 h 29.223 c 0.143,0 0.258,0.115 0.258,0.258 0,0.142 -0.116,0.258 -0.258,0.258 z" />
					</g>
					<g
   id="XMLID_523_">
						<path
   id="XMLID_524_"
   style="fill:#888888"
   d="m 377.408,341.495 h -29.223 c -0.143,0 -0.258,-0.115 -0.258,-0.258 0,-0.143 0.115,-0.258 0.258,-0.258 h 29.223 c 0.143,0 0.258,0.116 0.258,0.258 0,0.142 -0.116,0.258 -0.258,0.258 z" />
					</g>
					<g
   id="XMLID_581_">
						<path
   id="XMLID_582_"
   style="fill:#888888"
   d="m 377.408,341.495 h -29.223 c -0.143,0 -0.258,-0.115 -0.258,-0.258 0,-0.143 0.115,-0.258 0.258,-0.258 h 29.223 c 0.143,0 0.258,0.116 0.258,0.258 0,0.142 -0.116,0.258 -0.258,0.258 z" />
					</g>
					<g
   id="XMLID_579_">
						<path
   id="XMLID_580_"
   style="fill:#888888"
   d="m 377.408,346.219 h -29.223 c -0.143,0 -0.258,-0.115 -0.258,-0.258 0,-0.143 0.115,-0.258 0.258,-0.258 h 29.223 c 0.143,0 0.258,0.115 0.258,0.258 0,0.143 -0.116,0.258 -0.258,0.258 z" />
					</g>
					<g
   id="XMLID_577_">
						<path
   id="XMLID_578_"
   style="fill:#888888"
   d="m 377.408,350.944 h -29.223 c -0.143,0 -0.258,-0.115 -0.258,-0.258 0,-0.143 0.115,-0.258 0.258,-0.258 h 29.223 c 0.143,0 0.258,0.115 0.258,0.258 0,0.143 -0.116,0.258 -0.258,0.258 z" />
					</g>
					<g
   id="XMLID_575_">
						<path
   id="XMLID_576_"
   style="fill:#888888"
   d="m 377.408,355.668 h -29.223 c -0.143,0 -0.258,-0.115 -0.258,-0.258 0,-0.143 0.115,-0.258 0.258,-0.258 h 29.223 c 0.143,0 0.258,0.115 0.258,0.258 0,0.143 -0.116,0.258 -0.258,0.258 z" />
					</g>
					<g
   id="XMLID_560_">
						<path
   id="XMLID_562_"
   style="fill:#888888"
   d="m 377.408,360.393 h -29.223 c -0.143,0 -0.258,-0.116 -0.258,-0.258 0,-0.143 0.115,-0.258 0.258,-0.258 h 29.223 c 0.143,0 0.258,0.115 0.258,0.258 0,0.142 -0.116,0.258 -0.258,0.258 z" />
					</g>
					<g
   id="XMLID_558_">
						<path
   id="XMLID_559_"
   style="fill:#888888"
   d="m 377.408,365.117 h -29.223 c -0.143,0 -0.258,-0.115 -0.258,-0.258 0,-0.143 0.115,-0.258 0.258,-0.258 h 29.223 c 0.143,0 0.258,0.115 0.258,0.258 0,0.143 -0.116,0.258 -0.258,0.258 z" />
					</g>
					<g
   id="XMLID_554_">
						<path
   id="XMLID_557_"
   style="fill:#888888"
   d="m 377.408,369.841 h -29.223 c -0.143,0 -0.258,-0.115 -0.258,-0.258 0,-0.143 0.115,-0.258 0.258,-0.258 h 29.223 c 0.143,0 0.258,0.116 0.258,0.258 0,0.142 -0.116,0.258 -0.258,0.258 z" />
					</g>
				</g>
			</g>
		</g>
	</g>
</g>

</svg>
